<?xml version="1.0" ?><!DOCTYPE svg  PUBLIC '-//W3C//DTD SVG 1.1//EN'  'http://www.w3.org/Graphics/SVG/1.1/DTD/svg11.dtd'><svg height="100%" style="fill-rule:evenodd;clip-rule:evenodd;stroke-linejoin:round;stroke-miterlimit:2;" version="1.1" viewBox="0 0 64 64" width="100%" xml:space="preserve" xmlns="http://www.w3.org/2000/svg" xmlns:serif="http://www.serif.com/" xmlns:xlink="http://www.w3.org/1999/xlink"><g transform="matrix(1,0,0,1,-640,0)"><g id="messanger-facebook-fb-apps-platform" transform="matrix(1,0,0,1,640,7.10543e-15)"><rect height="64" style="fill:none;" width="64" x="0" y="0"/><g transform="matrix(1,0,0,1,-640,-7.10543e-15)"><path d="M656,51.334C648.748,46.634 644,38.828 644,30C644,15.65 656.546,4 672,4C687.454,4 700,15.65 700,30C700,44.35 687.454,56 672,56C670.119,56 668.282,55.827 666.504,55.498C666.504,55.498 660.251,58.178 657.394,59.403C657.085,59.535 656.73,59.503 656.45,59.318C656.169,59.133 656,58.82 656,58.483C656,55.999 656,51.334 656,51.334Z" style="fill:rgb(87,183,235);"/></g><g transform="matrix(1,0,0,1,-640,-2)"><path d="M652,36C652,36 664.034,25.47 667.229,22.675C667.432,22.497 667.698,22.409 667.966,22.43C668.235,22.451 668.483,22.58 668.656,22.787C670.88,25.456 678,34 678,34L692,28C692,28 679.966,38.53 676.771,41.325C676.568,41.503 676.302,41.591 676.034,41.57C675.765,41.549 675.517,41.42 675.344,41.213C673.12,38.544 666,30 666,30L652,36Z" style="fill:rgb(249,246,249);"/></g><g transform="matrix(1,0,0,1,-640,-7.10543e-15)"><path d="M652.508,11.342C648.446,15.855 646,21.665 646,28C646,42.35 658.546,54 674,54C681.574,54 688.449,51.202 693.492,46.658C688.355,52.366 680.631,56 672,56C670.119,56 668.282,55.827 666.504,55.498C666.504,55.498 660.251,58.178 657.394,59.403C657.085,59.535 656.73,59.503 656.45,59.318C656.169,59.133 656,58.82 656,58.483C656,55.999 656,51.334 656,51.334C648.748,46.634 644,38.828 644,30C644,22.683 647.262,16.068 652.508,11.342Z" style="fill:rgb(72,145,211);"/></g></g></g></svg>